<mxfile host="app.diagrams.net" modified="2020-09-30T08:59:06.229Z" agent="5.0 (Macintosh; Intel Mac OS X 10_14_5) AppleWebKit/537.36 (KHTML, like Gecko) Chrome/85.0.4183.121 Safari/537.36" etag="50AAVSe2d_0-yETdhTM-" version="13.7.6" type="github">
  <diagram id="4e2ognGAOi7qSUrGixTA" name="Page-1">
    <mxGraphModel dx="983" dy="-600" grid="1" gridSize="10" guides="1" tooltips="1" connect="1" arrows="1" fold="1" page="1" pageScale="1" pageWidth="827" pageHeight="1169" math="0" shadow="0">
      <root>
        <mxCell id="0" />
        <mxCell id="1" parent="0" />
        <mxCell id="tH2ZVRP2gjokr88Ek9KW-1" value="" style="rounded=0;whiteSpace=wrap;html=1;align=left;" vertex="1" parent="1">
          <mxGeometry x="40" y="1490" width="610" height="360" as="geometry" />
        </mxCell>
        <mxCell id="tH2ZVRP2gjokr88Ek9KW-2" style="rounded=0;orthogonalLoop=1;jettySize=auto;html=1;exitX=0;exitY=0.25;exitDx=0;exitDy=0;entryX=1;entryY=0.5;entryDx=0;entryDy=0;endArrow=none;endFill=0;" edge="1" parent="1" source="tH2ZVRP2gjokr88Ek9KW-6" target="tH2ZVRP2gjokr88Ek9KW-8">
          <mxGeometry relative="1" as="geometry" />
        </mxCell>
        <mxCell id="tH2ZVRP2gjokr88Ek9KW-3" style="edgeStyle=none;rounded=0;orthogonalLoop=1;jettySize=auto;html=1;exitX=0.75;exitY=0;exitDx=0;exitDy=0;entryX=0.5;entryY=1;entryDx=0;entryDy=0;endArrow=none;endFill=0;" edge="1" parent="1" source="tH2ZVRP2gjokr88Ek9KW-6" target="tH2ZVRP2gjokr88Ek9KW-9">
          <mxGeometry relative="1" as="geometry" />
        </mxCell>
        <mxCell id="tH2ZVRP2gjokr88Ek9KW-4" style="edgeStyle=none;rounded=0;orthogonalLoop=1;jettySize=auto;html=1;exitX=0.25;exitY=1;exitDx=0;exitDy=0;entryX=0.5;entryY=0;entryDx=0;entryDy=0;endArrow=none;endFill=0;" edge="1" parent="1" source="tH2ZVRP2gjokr88Ek9KW-6" target="tH2ZVRP2gjokr88Ek9KW-11">
          <mxGeometry relative="1" as="geometry" />
        </mxCell>
        <mxCell id="tH2ZVRP2gjokr88Ek9KW-5" style="edgeStyle=none;rounded=0;orthogonalLoop=1;jettySize=auto;html=1;exitX=0.25;exitY=0;exitDx=0;exitDy=0;entryX=0.5;entryY=1;entryDx=0;entryDy=0;endArrow=none;endFill=0;" edge="1" parent="1" source="tH2ZVRP2gjokr88Ek9KW-6" target="tH2ZVRP2gjokr88Ek9KW-12">
          <mxGeometry relative="1" as="geometry" />
        </mxCell>
        <mxCell id="tH2ZVRP2gjokr88Ek9KW-6" value="数据处理配置" style="rounded=0;whiteSpace=wrap;html=1;" vertex="1" parent="1">
          <mxGeometry x="200" y="1715" width="250" height="60" as="geometry" />
        </mxCell>
        <mxCell id="tH2ZVRP2gjokr88Ek9KW-7" value="id" style="ellipse;whiteSpace=wrap;html=1;" vertex="1" parent="1">
          <mxGeometry x="105" y="1680" width="40" height="30" as="geometry" />
        </mxCell>
        <mxCell id="tH2ZVRP2gjokr88Ek9KW-8" value="toTopics" style="ellipse;whiteSpace=wrap;html=1;" vertex="1" parent="1">
          <mxGeometry x="90" y="1715" width="70" height="25" as="geometry" />
        </mxCell>
        <mxCell id="tH2ZVRP2gjokr88Ek9KW-9" value="数据处理，采用mysql json类型存储&lt;br&gt;&lt;pre style=&quot;background-color: rgb(255 , 255 , 255) ; font-family: &amp;#34;menlo&amp;#34; ; font-size: 9pt&quot;&gt;&lt;pre style=&quot;font-family: &amp;#34;menlo&amp;#34; ; font-size: 9pt&quot;&gt;&lt;span style=&quot;color: #660e7a ; font-weight: bold&quot;&gt;&quot;aggregate&quot;&lt;/span&gt;: {&lt;br&gt;  &lt;span style=&quot;color: #660e7a ; font-weight: bold&quot;&gt;&quot;type&quot;&lt;/span&gt;: &lt;span style=&quot;color: #008000 ; font-weight: bold&quot;&gt;&quot;avg&quot;&lt;/span&gt;,&lt;br&gt;  &lt;span style=&quot;color: #660e7a ; font-weight: bold&quot;&gt;&quot;sourceCount&quot;&lt;/span&gt;: &lt;span style=&quot;color: #008000 ; font-weight: bold&quot;&gt;&quot;aviator表达式&quot;&lt;/span&gt;,&lt;br&gt;  &lt;span style=&quot;color: #660e7a ; font-weight: bold&quot;&gt;&quot;sourceSum&quot;&lt;/span&gt;: &lt;span style=&quot;color: #008000 ; font-weight: bold&quot;&gt;&quot;aviator表达式&quot;&lt;/span&gt;,&lt;br&gt;  &lt;span style=&quot;color: #660e7a ; font-weight: bold&quot;&gt;&quot;recent&quot;&lt;/span&gt;: &lt;span style=&quot;color: #0000ff&quot;&gt;600&lt;/span&gt;,&lt;br&gt;  &lt;span style=&quot;color: #660e7a ; font-weight: bold&quot;&gt;&quot;resultField&quot;&lt;/span&gt;: &lt;span style=&quot;color: #008000 ; font-weight: bold&quot;&gt;&quot;aaa_avg&quot;&lt;br&gt;&lt;/span&gt;}&lt;/pre&gt;&lt;/pre&gt;" style="ellipse;whiteSpace=wrap;html=1;align=left;spacingTop=0;spacing=49;" vertex="1" parent="1">
          <mxGeometry x="340" y="1510" width="290" height="180" as="geometry" />
        </mxCell>
        <mxCell id="tH2ZVRP2gjokr88Ek9KW-10" value="" style="endArrow=none;html=1;entryX=1;entryY=0.5;entryDx=0;entryDy=0;exitX=0;exitY=0;exitDx=0;exitDy=0;" edge="1" parent="1" source="tH2ZVRP2gjokr88Ek9KW-6" target="tH2ZVRP2gjokr88Ek9KW-7">
          <mxGeometry width="50" height="50" relative="1" as="geometry">
            <mxPoint x="590" y="1840" as="sourcePoint" />
            <mxPoint x="640" y="1790" as="targetPoint" />
          </mxGeometry>
        </mxCell>
        <mxCell id="tH2ZVRP2gjokr88Ek9KW-11" value="note" style="ellipse;whiteSpace=wrap;html=1;" vertex="1" parent="1">
          <mxGeometry x="200" y="1800" width="60" height="30" as="geometry" />
        </mxCell>
        <mxCell id="tH2ZVRP2gjokr88Ek9KW-12" value="业务相关配置：&lt;br&gt;1.sourceTopic&lt;br&gt;2.bizType" style="ellipse;whiteSpace=wrap;html=1;align=left;spacingTop=0;spacing=38;" vertex="1" parent="1">
          <mxGeometry x="160" y="1580" width="160" height="80" as="geometry" />
        </mxCell>
        <mxCell id="tH2ZVRP2gjokr88Ek9KW-15" style="rounded=0;orthogonalLoop=1;jettySize=auto;html=1;exitX=1;exitY=0.5;exitDx=0;exitDy=0;entryX=0;entryY=0.75;entryDx=0;entryDy=0;endArrow=none;endFill=0;" edge="1" parent="1" source="tH2ZVRP2gjokr88Ek9KW-13" target="tH2ZVRP2gjokr88Ek9KW-6">
          <mxGeometry relative="1" as="geometry" />
        </mxCell>
        <mxCell id="tH2ZVRP2gjokr88Ek9KW-13" value="toHBase" style="ellipse;whiteSpace=wrap;html=1;" vertex="1" parent="1">
          <mxGeometry x="90" y="1750" width="70" height="25" as="geometry" />
        </mxCell>
        <mxCell id="tH2ZVRP2gjokr88Ek9KW-16" style="edgeStyle=none;rounded=0;orthogonalLoop=1;jettySize=auto;html=1;exitX=1;exitY=0.5;exitDx=0;exitDy=0;entryX=0;entryY=1;entryDx=0;entryDy=0;endArrow=none;endFill=0;" edge="1" parent="1" source="tH2ZVRP2gjokr88Ek9KW-14" target="tH2ZVRP2gjokr88Ek9KW-6">
          <mxGeometry relative="1" as="geometry" />
        </mxCell>
        <mxCell id="tH2ZVRP2gjokr88Ek9KW-14" value="toTablestore" style="ellipse;whiteSpace=wrap;html=1;" vertex="1" parent="1">
          <mxGeometry x="90" y="1780" width="70" height="30" as="geometry" />
        </mxCell>
      </root>
    </mxGraphModel>
  </diagram>
</mxfile>
